<svg xmlns="http://www.w3.org/2000/svg" style="display: none;"><symbol id="nc-bgm-pin-localizacao-1x" viewBox="0 0 16 16"><title>bgm pin localizacao 1x</title><g><g class="nc-icon-wrapper" fill="currentColor"><title>bgm-pin-localizacao-1x</title><path class="cls-1" d="M6.396 15.5a.498.498 0 0 1-.353-.146C5.816 15.127.5 9.767.5 5.948A5.851 5.851 0 0 1 6.396.028a5.851 5.851 0 0 1 5.897 5.92 4.905 4.905 0 0 1-.068.796.5.5 0 0 1-.987-.168 3.778 3.778 0 0 0 .055-.63 4.86 4.86 0 0 0-4.896-4.919A4.86 4.86 0 0 0 1.5 5.948c0 2.884 3.719 7.074 4.896 8.33.31-.328.791-.857 1.332-1.51a.5.5 0 0 1 .77.64c-.956 1.153-1.717 1.914-1.748 1.946a.498.498 0 0 1-.354.146z" fill="currentColor"/><path class="cls-1" d="M6.396 8.386A2.462 2.462 0 1 1 8.86 5.924a2.465 2.465 0 0 1-2.463 2.462zm0-3.925A1.462 1.462 0 1 0 7.86 5.924 1.464 1.464 0 0 0 6.396 4.46z" fill="currentColor"/><path class="cls-1" d="M12.8 8.269c.413 0 .755 1.1.905 1.667a.404.404 0 0 0 .417.304c.586-.034 1.738-.048 1.866.345s-.813 1.06-1.306 1.377a.404.404 0 0 0-.16.49c.213.547.582 1.64.248 1.882s-1.259-.446-1.712-.817a.404.404 0 0 0-.517 0c-.454.371-1.378 1.06-1.712.817s.035-1.335.247-1.881a.404.404 0 0 0-.16-.491c-.492-.317-1.433-.984-1.306-1.377s1.281-.379 1.866-.345a.404.404 0 0 0 .418-.304c.15-.567.492-1.667.905-1.667z" fill="currentColor"/></g></g></symbol><symbol id="nc-bgm-pin-localizacao-2x" viewBox="0 0 24 24"><title>bgm pin localizacao 2x</title><g><g class="nc-icon-wrapper" fill="currentColor"><title>bgm-pin-localizacao-2x</title><path class="cls-1" d="M9.616 23.917a1.001 1.001 0 0 1-.707-.293C8.564 23.279.47 15.116.47 9.251A9.076 9.076 0 0 1 9.616.067a9.076 9.076 0 0 1 9.147 9.184 7.43 7.43 0 0 1-.109 1.243 1 1 0 1 1-1.97-.336 5.552 5.552 0 0 0 .079-.91 7.094 7.094 0 0 0-7.147-7.18A7.095 7.095 0 0 0 2.47 9.25c0 3.789 4.641 9.542 7.143 12.22.461-.495 1.11-1.216 1.826-2.08a1 1 0 1 1 1.54 1.278 47.227 47.227 0 0 1-2.655 2.955 1 1 0 0 1-.707.293z" fill="currentColor"/><path class="cls-1" d="M9.616 13.177a3.962 3.962 0 1 1 3.962-3.962 3.966 3.966 0 0 1-3.962 3.962zm0-5.925a1.963 1.963 0 1 0 1.962 1.963 1.965 1.965 0 0 0-1.962-1.963z" fill="currentColor"/><path class="cls-1" d="M18.65 12.892c.598 0 1.095 1.595 1.311 2.417a.586.586 0 0 0 .606.44c.848-.048 2.52-.069 2.704.5s-1.179 1.536-1.893 1.996a.586.586 0 0 0-.231.712c.308.791.843 2.374.359 2.726s-1.825-.647-2.482-1.184a.586.586 0 0 0-.749 0c-.658.537-1.997 1.536-2.482 1.184s.051-1.935.36-2.726a.586.586 0 0 0-.232-.712c-.715-.46-2.079-1.425-1.893-1.995s1.856-.55 2.704-.501a.586.586 0 0 0 .605-.44c.217-.822.713-2.417 1.312-2.417z" fill="currentColor"/></g></g></symbol><symbol id="nc-bgm-pin-localizacao-3x" viewBox="0 0 32 32"><title>bgm pin localizacao 3x</title><g><g class="nc-icon-wrapper" fill="currentColor"><title>bgm-pin-localizacao-3x</title><path class="cls-1" d="M12.35 31.919a.997.997 0 0 1-.706-.293C11.179 31.161.267 20.159.267 12.328A11.99 11.99 0 0 1 12.35.193a11.99 11.99 0 0 1 12.084 12.135 9.87 9.87 0 0 1-.143 1.63 1 1 0 1 1-1.97-.338 8.035 8.035 0 0 0 .113-1.298A10.01 10.01 0 0 0 12.35 2.193 10.01 10.01 0 0 0 2.267 12.328c0 5.946 7.683 14.592 10.085 17.148a69.245 69.245 0 0 0 2.755-3.122 1 1 0 1 1 1.54 1.277c-1.964 2.366-3.524 3.93-3.59 3.995a.997.997 0 0 1-.706.293z" fill="currentColor"/><path class="cls-1" d="M12.35 17.308a5.03 5.03 0 1 1 5.03-5.03 5.036 5.036 0 0 1-5.03 5.03zm0-8.06a3.03 3.03 0 1 0 3.03 3.03 3.034 3.034 0 0 0-3.03-3.03z" fill="currentColor"/><path class="cls-1" d="M25.323 17.3c.86 0 1.573 2.29 1.883 3.47a.84.84 0 0 0 .869.63c1.218-.068 3.616-.098 3.882.72s-1.692 2.204-2.718 2.864a.84.84 0 0 0-.332 1.021c.442 1.137 1.211 3.409.516 3.914s-2.619-.928-3.563-1.7a.84.84 0 0 0-1.075 0c-.944.772-2.867 2.205-3.562 1.7s.073-2.777.515-3.914a.84.84 0 0 0-.332-1.021c-1.025-.66-2.983-2.046-2.717-2.864s2.664-.788 3.881-.72a.84.84 0 0 0 .87-.63c.31-1.18 1.023-3.47 1.883-3.47z" fill="currentColor"/></g></g></symbol><symbol id="nc-bgm-pin-localizacao-4x" viewBox="0 0 48 48"><title>bgm pin localizacao 4x</title><g><g class="nc-icon-wrapper" fill="currentColor"><title>bgm-pin-localizacao-4x</title><path class="cls-1" d="M18.11 47.875a1 1 0 0 1-.707-.293C16.693 46.872.02 30.064.02 18.212A17.951 17.951 0 0 1 18.11.045 17.951 17.951 0 0 1 36.2 18.212a14.694 14.694 0 0 1-.213 2.422 1 1 0 0 1-1.97-.34 12.838 12.838 0 0 0 .182-2.087A15.97 15.97 0 0 0 18.11 2.045 15.97 15.97 0 0 0 2.022 18.212c0 9.717 12.898 23.873 16.09 27.226a104.62 104.62 0 0 0 4.666-5.256 1 1 0 0 1 1.54 1.277c-3.013 3.629-5.4 6.022-5.5 6.123a1 1 0 0 1-.707.293z" fill="currentColor"/><path class="cls-1" d="M18.11 25.349a7.214 7.214 0 1 1 7.214-7.215 7.223 7.223 0 0 1-7.214 7.215zm0-12.43a5.214 5.214 0 1 0 5.214 5.215 5.22 5.22 0 0 0-5.214-5.214z" fill="currentColor"/><path class="cls-1" d="M36.347 22.865c1.505 0 2.753 4.008 3.296 6.071a1.471 1.471 0 0 0 1.52 1.106c2.132-.122 6.329-.173 6.794 1.258s-2.96 3.857-4.756 5.011a1.471 1.471 0 0 0-.581 1.788c.774 1.99 2.12 5.965.902 6.85s-4.582-1.625-6.235-2.975a1.471 1.471 0 0 0-1.88 0c-1.652 1.35-5.017 3.859-6.235 2.974s.129-4.86.902-6.849a1.471 1.471 0 0 0-.58-1.788c-1.796-1.154-5.222-3.58-4.757-5.01s4.663-1.38 6.794-1.26a1.471 1.471 0 0 0 1.52-1.105c.543-2.063 1.792-6.07 3.296-6.07z" fill="currentColor"/></g></g></symbol><symbol id="nc-bgm-engrenagem-cargas-1x" viewBox="0 0 16 16"><title>bgm engrenagem cargas 1x</title><g><g class="nc-icon-wrapper" fill="currentColor"><title>bgm-engrenagem-cargas-1x</title><path class="cls-1" d="M14.545 6.52h-.909a6.773 6.773 0 0 0-.618-1.49l.655-.655A1.466 1.466 0 0 0 11.6 2.302l-.655.655a5.882 5.882 0 0 0-1.49-.618v-.91a1.455 1.455 0 1 0-2.91 0v.91a6.774 6.774 0 0 0-1.49.618L4.4 2.302a1.466 1.466 0 0 0-2.073 2.073l.655.655a5.882 5.882 0 0 0-.618 1.49h-.91a1.455 1.455 0 1 0 0 2.91h.91a6.774 6.774 0 0 0 .618 1.49l-.655.655A1.466 1.466 0 0 0 4.4 13.648l.655-.655a5.882 5.882 0 0 0 1.49.618v.91a1.455 1.455 0 0 0 2.91 0v-.91a6.773 6.773 0 0 0 1.49-.618l.655.655a1.466 1.466 0 0 0 2.073-2.073l-.655-.655a5.883 5.883 0 0 0 .618-1.49h.91a1.455 1.455 0 1 0 0-2.91zM8 10.52a2.545 2.545 0 1 1 2.545-2.545A2.53 2.53 0 0 1 8 10.52z" fill="currentColor"/></g></g></symbol><symbol id="nc-bgm-engrenagem-cargas-2x" viewBox="0 0 24 24"><title>bgm engrenagem cargas 2x</title><g><g class="nc-icon-wrapper" fill="currentColor"><title>bgm-engrenagem-cargas-2x</title><path class="cls-1" d="M21.798 9.798h-1.361a10.14 10.14 0 0 0-.925-2.232l.98-.98a2.194 2.194 0 1 0-3.103-3.102l-.98.98a8.806 8.806 0 0 0-2.232-.926v-1.36a2.177 2.177 0 0 0-4.354 0v1.36a10.14 10.14 0 0 0-2.232.925l-.98-.98A2.194 2.194 0 1 0 3.51 6.587l.98.98a8.805 8.805 0 0 0-.926 2.232h-1.36a2.177 2.177 0 0 0 0 4.354h1.36a10.14 10.14 0 0 0 .925 2.232l-.98.98a2.194 2.194 0 1 0 3.103 3.102l.98-.98a8.805 8.805 0 0 0 2.232.926v1.36a2.177 2.177 0 0 0 4.354 0v-1.36a10.139 10.139 0 0 0 2.232-.925l.98.98a2.194 2.194 0 1 0 3.102-3.103l-.98-.98a8.806 8.806 0 0 0 .926-2.232h1.36a2.177 2.177 0 0 0 0-4.354zM12 15.785a3.81 3.81 0 1 1 3.81-3.81 3.787 3.787 0 0 1-3.81 3.81z" fill="currentColor"/></g></g></symbol><symbol id="nc-bgm-engrenagem-cargas-3x" viewBox="0 0 32 32"><title>bgm engrenagem cargas 3x</title><g><g class="nc-icon-wrapper" fill="currentColor"><title>bgm-engrenagem-cargas-3x</title><path class="cls-1" d="M29.07 13.07h-1.815a13.526 13.526 0 0 0-1.234-2.977l1.307-1.307a2.927 2.927 0 1 0-4.14-4.139l-1.306 1.307a11.747 11.747 0 0 0-2.977-1.234V2.905a2.905 2.905 0 1 0-5.81 0V4.72a13.526 13.526 0 0 0-2.977 1.234L8.811 4.647a2.927 2.927 0 0 0-4.139 4.14l1.307 1.306a11.747 11.747 0 0 0-1.234 2.977H2.93a2.905 2.905 0 0 0 0 5.81h1.815a13.526 13.526 0 0 0 1.234 2.977l-1.307 1.307a2.927 2.927 0 1 0 4.14 4.139l1.306-1.307a11.747 11.747 0 0 0 2.977 1.234v1.815a2.905 2.905 0 0 0 5.81 0V27.23a13.526 13.526 0 0 0 2.977-1.234l1.307 1.307a2.927 2.927 0 1 0 4.139-4.14l-1.307-1.306a11.747 11.747 0 0 0 1.234-2.977h1.815a2.905 2.905 0 0 0 0-5.81zM16 21.058a5.083 5.083 0 1 1 5.083-5.083A5.052 5.052 0 0 1 16 21.058z" fill="currentColor"/></g></g></symbol><symbol id="nc-bgm-engrenagem-cargas-4x" viewBox="0 0 48 48"><title>bgm engrenagem cargas 4x</title><g><g class="nc-icon-wrapper" fill="currentColor"><title>bgm-engrenagem-cargas-4x</title><path class="cls-1" d="M43.616 19.616H40.89a20.3 20.3 0 0 0-1.852-4.468L41 13.186a4.392 4.392 0 0 0-6.211-6.211l-1.962 1.961a17.63 17.63 0 0 0-4.468-1.852V4.359a4.36 4.36 0 1 0-8.718 0v2.725a20.3 20.3 0 0 0-4.468 1.852L13.21 6.975A4.392 4.392 0 0 0 7 13.186l1.961 1.962a17.63 17.63 0 0 0-1.852 4.468H4.384a4.36 4.36 0 0 0 0 8.718H7.11a20.3 20.3 0 0 0 1.852 4.468L7 34.764a4.392 4.392 0 1 0 6.211 6.211l1.962-1.961a17.63 17.63 0 0 0 4.468 1.852v2.725a4.36 4.36 0 0 0 8.718 0v-2.725a20.3 20.3 0 0 0 4.468-1.852l1.962 1.961A4.392 4.392 0 0 0 41 34.764l-1.961-1.962a17.63 17.63 0 0 0 1.852-4.468h2.725a4.36 4.36 0 1 0 0-8.718zM24 31.603a7.628 7.628 0 1 1 7.628-7.628A7.581 7.581 0 0 1 24 31.603z" fill="currentColor"/></g></g></symbol><symbol id="nc-bgm-check-1x" viewBox="0 0 16 16"><title>bgm check 1x</title><g><g class="nc-icon-wrapper" fill="currentColor"><title>bgm-check-x</title><path class="cls-1" d="M14.3 4.3L5 13.6l-3.3-3.3a.967.967 0 0 0-1.4 0 .967.967 0 0 0 0 1.4l4 4a.908.908 0 0 0 .7.3.908.908 0 0 0 .7-.3l10-10a.99.99 0 0 0-1.4-1.4z" fill="currentColor"/></g></g></symbol><symbol id="nc-bgm-check-2x" viewBox="0 0 24 24"><title>bgm check 2x</title><g><g class="nc-icon-wrapper" fill="currentColor"><title>bgm-check-2x</title><path class="cls-1" d="M21.358 6.525l-13.89 13.89-4.929-4.928a1.444 1.444 0 0 0-2.09 0 1.444 1.444 0 0 0 0 2.09l5.973 5.975A1.356 1.356 0 0 0 7.468 24a1.356 1.356 0 0 0 1.046-.448L23.449 8.616a1.479 1.479 0 0 0-2.09-2.091z" fill="currentColor"/></g></g></symbol><symbol id="nc-bgm-check-3x" viewBox="0 0 32 32"><title>bgm check 3x</title><g><g class="nc-icon-wrapper" fill="currentColor"><title>bgm-check-3x</title><path class="cls-1" d="M28.508 8.675l-18.54 18.54-6.579-6.578a1.927 1.927 0 0 0-2.79 0 1.927 1.927 0 0 0 0 2.79l7.973 7.975A1.81 1.81 0 0 0 9.968 32a1.81 1.81 0 0 0 1.396-.598l19.935-19.936a1.974 1.974 0 0 0-2.79-2.791z" fill="currentColor"/></g></g></symbol><symbol id="nc-bgm-check-4x" viewBox="0 0 48 48"><title>bgm check 4x</title><g><g class="nc-icon-wrapper" fill="currentColor"><title>bgm-check-4x</title><path class="cls-1" d="M42.808 12.975l-27.84 27.84-9.879-9.878a2.894 2.894 0 0 0-4.19 0 2.894 2.894 0 0 0 0 4.19l11.973 11.975a2.718 2.718 0 0 0 2.096.898 2.718 2.718 0 0 0 2.096-.898l29.935-29.936a2.964 2.964 0 1 0-4.19-4.191z" fill="currentColor"/></g></g></symbol><symbol id="nc-bgm-mais-1x" viewBox="0 0 16 16"><title>bgm mais 1x</title><g><g class="nc-icon-wrapper" fill="currentColor"><title>bgm-mais-1x</title><path d="M9.706 6.903h5.05a.993.993 0 0 1 .994.993v.24a.993.993 0 0 1-.993.993H9.706a.601.601 0 0 0-.601.601v5.277a.993.993 0 0 1-.993.993h-.256a.993.993 0 0 1-.993-.993V9.73a.601.601 0 0 0-.601-.601H1.243a.993.993 0 0 1-.993-.993v-.24a.993.993 0 0 1 .993-.993h5.019a.601.601 0 0 0 .6-.6V.992A.993.993 0 0 1 7.857 0h.256a.993.993 0 0 1 .993.993v5.31a.601.601 0 0 0 .6.6z"/></g></g></symbol><symbol id="nc-bgm-mais-2x" viewBox="0 0 24 24"><title>bgm mais 2x</title><g><g class="nc-icon-wrapper" fill="currentColor"><title>bgm-mais-2x</title><path d="M14.184 10.355h7.576a1.49 1.49 0 0 1 1.49 1.49v.359a1.49 1.49 0 0 1-1.49 1.49h-7.576a.902.902 0 0 0-.902.901v7.915a1.49 1.49 0 0 1-1.49 1.49h-.383a1.49 1.49 0 0 1-1.49-1.49v-7.915a.902.902 0 0 0-.901-.901H1.49A1.49 1.49 0 0 1 0 12.204v-.36a1.49 1.49 0 0 1 1.49-1.49h7.528a.902.902 0 0 0 .901-.9V1.49A1.49 1.49 0 0 1 11.41 0h.383a1.49 1.49 0 0 1 1.49 1.49v7.963a.902.902 0 0 0 .902.902z"/></g></g></symbol><symbol id="nc-bgm-mais-3x" viewBox="0 0 32 32"><title>bgm mais 3x</title><g><g class="nc-icon-wrapper" fill="currentColor"><title>bgm-mais-3x</title><path d="M18.912 13.806h10.102A1.986 1.986 0 0 1 31 15.793v.479a1.986 1.986 0 0 1-1.986 1.986H18.912a1.202 1.202 0 0 0-1.202 1.202v10.554A1.986 1.986 0 0 1 15.723 32h-.51a1.986 1.986 0 0 1-1.987-1.986V19.46a1.202 1.202 0 0 0-1.202-1.202H1.986A1.986 1.986 0 0 1 0 16.272v-.48a1.986 1.986 0 0 1 1.986-1.986h10.038a1.202 1.202 0 0 0 1.202-1.202V1.986A1.986 1.986 0 0 1 15.212 0h.511a1.986 1.986 0 0 1 1.987 1.986v10.618a1.202 1.202 0 0 0 1.202 1.202z"/></g></g></symbol><symbol id="nc-bgm-mais-4x" viewBox="0 0 48 48"><title>bgm mais 4x</title><g><g class="nc-icon-wrapper" fill="currentColor"><title>bgm-mais-4x</title><path d="M28.368 20.71H43.52a2.98 2.98 0 0 1 2.98 2.98v.717a2.98 2.98 0 0 1-2.98 2.98H28.368a1.803 1.803 0 0 0-1.803 1.803v15.83a2.98 2.98 0 0 1-2.98 2.98h-.767a2.98 2.98 0 0 1-2.98-2.98V29.19a1.803 1.803 0 0 0-1.803-1.803H2.98A2.98 2.98 0 0 1 0 24.407v-.718a2.98 2.98 0 0 1 2.98-2.98h15.055a1.803 1.803 0 0 0 1.804-1.803V2.98A2.98 2.98 0 0 1 22.819 0h.766a2.98 2.98 0 0 1 2.98 2.98v15.926a1.803 1.803 0 0 0 1.803 1.804z"/></g></g></symbol><symbol id="nc-bgm-arrowdown-x1" viewBox="0 0 16 16"><title>bgm arrowdown x1</title><g><g class="nc-icon-wrapper" fill="currentColor"><title>bgm-arrowdown-x1</title><path class="cls-1" d="M8 16a1 1 0 0 1-.65-.24l-7-6a1 1 0 0 1-.11-1.41 1 1 0 0 1 1.41-.11L8 13.68l6.35-5.44a1 1 0 0 1 1.41.11 1 1 0 0 1-.11 1.41l-7 6A1 1 0 0 1 8 16z" fill="currentColor"/></g></g></symbol><symbol id="nc-bgm-arrowdown-2x" viewBox="0 0 24 24"><title>bgm arrowdown 2x</title><g><g class="nc-icon-wrapper" fill="currentColor"><title>bgm-arrowdown-2x</title><path class="cls-1" d="M12 24a1.52 1.52 0 0 1-1-.36l-10.5-9a1.5 1.5 0 0 1-.16-2.12 1.5 1.5 0 0 1 2.12-.16L12 20.52l9.52-8.16a1.5 1.5 0 0 1 2.12.16 1.5 1.5 0 0 1-.16 2.12l-10.5 9A1.52 1.52 0 0 1 12 24z" fill="currentColor"/></g></g></symbol><symbol id="nc-bgm-arrowdown-3x" viewBox="0 0 32 32"><title>bgm arrowdown 3x</title><g><g class="nc-icon-wrapper" fill="currentColor"><title>bgm-arrowdown-3x</title><path class="cls-1" d="M15.87 31.88a2 2 0 0 1-1.29-.48L.69 19.49a2 2 0 0 1-.21-2.8 2 2 0 0 1 2.8-.21l12.59 10.8 12.6-10.8a2 2 0 0 1 2.8.21 2 2 0 0 1-.21 2.8L17.17 31.4a2 2 0 0 1-1.3.48z" fill="currentColor"/></g></g></symbol><symbol id="nc-bgm-arrowdown-4x" viewBox="0 0 48 48"><title>bgm arrowdown 4x</title><g><g class="nc-icon-wrapper" fill="currentColor"><title>bgm-arrowdown-4x</title><path class="cls-1" d="M24 48a3 3 0 0 1-1.95-.72l-21-18a3 3 0 0 1-.33-4.23A3 3 0 0 1 5 24.72l19 16.33 19-16.33a3 3 0 0 1 4.23.33 3 3 0 0 1-.23 4.23l-21 18a3 3 0 0 1-2 .72z" fill="currentColor"/></g></g></symbol><symbol id="nc-bgm-arrowdown-0" viewBox="0 0 12 10"><title>bgm arrowdown 0</title><g><g class="nc-icon-wrapper" fill="currentColor"><title>bgm-arrowdown-0.5</title><path class="cls-1" d="M6 10a.76.76 0 0 1-.49-.18L.26 5.32a.76.76 0 0 1-.08-1.06.76.76 0 0 1 1.06-.08L6 8.26l4.76-4.08a.76.76 0 0 1 1.06.08.76.76 0 0 1-.08 1.06l-5.25 4.5A.74.74 0 0 1 6 10z" fill="currentColor"/></g></g></symbol><symbol id="nc-bgm-arrowright-0" viewBox="0 0 12 12.05"><title>bgm arrowright 0</title><g><g class="nc-icon-wrapper" fill="currentColor"><title>bgm-arrowright-0.5</title><path class="cls-1" d="M12 6.05a.76.76 0 0 1-.18.49l-4.5 5.25a.76.76 0 0 1-1.06.08.76.76 0 0 1-.08-1.06l4.08-4.76-4.08-4.76A.76.76 0 0 1 6.26.23a.76.76 0 0 1 1.06.08l4.5 5.25a.74.74 0 0 1 .18.49z" fill="currentColor"/></g></g></symbol><symbol id="nc-bgm-arrowright-1x" viewBox="0 0 16 16"><title>bgm arrowright 1x</title><g><g class="nc-icon-wrapper" fill="currentColor"><title>bgm-arrowright-x1</title><path class="cls-1" d="M16 8a1 1 0 0 1-.24.65l-6 7a1 1 0 0 1-1.41.11 1 1 0 0 1-.11-1.41L13.68 8 8.24 1.65A1 1 0 0 1 8.35.24a1 1 0 0 1 1.41.11l6 7A1 1 0 0 1 16 8z" fill="currentColor"/></g></g></symbol><symbol id="nc-bgm-arrowright-2x" viewBox="0 0 24 24"><title>bgm arrowright 2x</title><g><g class="nc-icon-wrapper" fill="currentColor"><title>bgm-arrowright-2x</title><path class="cls-1" d="M24 12a1.52 1.52 0 0 1-.36 1l-9 10.5a1.5 1.5 0 0 1-2.12.16 1.5 1.5 0 0 1-.16-2.12L20.52 12l-8.16-9.52a1.5 1.5 0 0 1 .16-2.12 1.5 1.5 0 0 1 2.12.16l9 10.5A1.52 1.52 0 0 1 24 12z" fill="currentColor"/></g></g></symbol><symbol id="nc-bgm-arrowright-3x" viewBox="0 0 32 32"><title>bgm arrowright 3x</title><g><g class="nc-icon-wrapper" fill="currentColor"><title>bgm-arrowright-3x</title><path class="cls-1" d="M32 16a2 2 0 0 1-.48 1.29l-11.9 13.89a2 2 0 0 1-2.8.22 2 2 0 0 1-.22-2.8L27.4 16 16.6 3.4a2 2 0 0 1 .22-2.8 2 2 0 0 1 2.8.22l11.9 13.89A2 2 0 0 1 32 16z" fill="currentColor"/></g></g></symbol><symbol id="nc-bgm-arrowright-4x" viewBox="0 0 48 48"><title>bgm arrowright 4x</title><g><g class="nc-icon-wrapper" fill="currentColor"><title>bgm-arrowright-4x</title><path class="cls-1" d="M48 24a3 3 0 0 1-.72 2l-18 21a3 3 0 0 1-4.23.33 3 3 0 0 1-.33-4.23L41.05 24 24.72 5a3 3 0 0 1 .33-4.28 3 3 0 0 1 4.23.33l18 21A3 3 0 0 1 48 24z" fill="currentColor"/></g></g></symbol><symbol id="nc-bgm-atalhos-1x" viewBox="0 0 16 16"><title>bgm atalhos 1x</title><g><g class="nc-icon-wrapper" fill="currentColor"><title>bgm-atalhos-1x</title><path class="cls-1" d="M9.46 15.93A2.3 2.3 0 0 1 7 13.85V12.3h1v1.55c0 .58.67 1.08 1.47 1.08s1.47-.5 1.47-1.08V12.3h1v1.55a2.31 2.31 0 0 1-2.48 2.08z" fill="currentColor"/><path class="cls-1" d="M6.75 4h-1V2.49c0-.54-.68-1-1.48-1S2.8 2 2.8 2.49V4h-1V2.49A2.27 2.27 0 0 1 4.27.5a2.28 2.28 0 0 1 2.48 2z" fill="currentColor"/><rect class="cls-1" x="2" y="6" width="1" height="1" rx=".5" ry=".5" fill="currentColor"/><rect class="cls-1" y="3" width="16" height="1" rx=".5" ry=".5" fill="currentColor"/><rect class="cls-1" y="12" width="16" height="1" rx=".5" ry=".5" fill="currentColor"/><rect class="cls-1" x="-4.5" y="7.5" width="10" height="1" rx=".5" ry=".5" transform="rotate(90 .5 8)" fill="currentColor"/><rect class="cls-1" x="10.5" y="7.5" width="10" height="1" rx=".5" ry=".5" transform="rotate(90 15.5 8)" fill="currentColor"/><rect class="cls-1" x="10.5" y="2.5" width="2" height="1" rx=".5" ry=".5" transform="rotate(90 11.5 3)" fill="currentColor"/><rect class="cls-1" x="2" y="9" width="1" height="1" rx=".5" ry=".5" fill="currentColor"/><rect class="cls-1" x="13" y="9" width="1" height="1" rx=".5" ry=".5" fill="currentColor"/><rect class="cls-1" x="5" y="6" width="2" height="1" rx=".5" ry=".5" fill="currentColor"/><rect class="cls-1" x="9" y="6" width="2" height="1" rx=".5" ry=".5" fill="currentColor"/><rect class="cls-1" x="12" y="6" width="2" height="1" rx=".5" ry=".5" fill="currentColor"/><rect class="cls-1" x="5" y="9" width="6" height="1" rx=".5" ry=".5" fill="currentColor"/></g></g></symbol><symbol id="nc-bgm-atalhos-2x" viewBox="0 0 24 24"><title>bgm atalhos 2x</title><g><g class="nc-icon-wrapper" fill="currentColor"><title>bgm-atalhos-2x</title><rect class="cls-1" x="19" y="9" width="2" height="2" rx=".6" ry=".6" fill="currentColor"/><rect class="cls-1" x="19" y="13" width="2" height="2" rx=".6" ry=".6" fill="currentColor"/><path class="cls-1" d="M14 24c-2.21 0-4-1.53-4-3.41V18h2v2.6c0 .77.92 1.41 2 1.41s2-.64 2-1.41V18h2v2.6c0 1.88-1.77 3.4-4 3.4z" fill="currentColor"/><path class="cls-1" d="M10.12 5.78h-2V3.27c0-.6-.83-1.27-2-1.27s-2 .67-2 1.27v2.51h-2V3.27C2.1 1.47 3.9 0 6.11 0s4 1.47 4 3.27z" fill="currentColor"/><rect class="cls-1" x="3" y="9" width="2" height="2" rx=".6" ry=".6" fill="currentColor"/><rect class="cls-1" y="5" width="24" height="2" rx=".6" ry=".6" fill="currentColor"/><rect class="cls-1" y="17" width="24" height="2" rx=".6" ry=".6" fill="currentColor"/><rect class="cls-1" x="-6" y="11" width="14" height="2" rx=".6" ry=".6" transform="rotate(90 1 12)" fill="currentColor"/><rect class="cls-1" x="16" y="11" width="14" height="2" rx=".6" ry=".6" transform="rotate(90 23 12)" fill="currentColor"/><rect class="cls-1" x="14.5" y="3.5" width="5" height="2" rx=".94" ry=".94" transform="rotate(90 17 4.5)" fill="currentColor"/><rect class="cls-1" x="3" y="13" width="2" height="2" rx=".6" ry=".6" fill="currentColor"/><rect class="cls-1" x="8" y="13" width="8" height="2" rx=".6" ry=".6" fill="currentColor"/><rect class="cls-1" x="8" y="9" width="2" height="2" rx=".6" ry=".6" fill="currentColor"/><rect class="cls-1" x="13" y="9" width="2" height="2" rx=".6" ry=".6" fill="currentColor"/></g></g></symbol><symbol id="nc-bgm-atalhos-3x" viewBox="0 0 32 32"><title>bgm atalhos 3x</title><g><g class="nc-icon-wrapper" fill="currentColor"><title>bgm-atalhos-3x</title><path class="cls-1" d="M19 31.33c-2.76 0-5-1.88-5-4.2V24h2v3.13c0 1.2 1.37 2.2 3 2.2s3-1 3-2.2V24h2v3.13c0 2.32-2.24 4.2-5 4.2z" fill="currentColor"/><path class="cls-1" d="M13 7.05h-2v-3c0-1.05-1.4-2-3-2S5 3 5 4.07v3H3v-3c0-2.19 2.24-4 5-4s5 1.78 5 4z" fill="currentColor"/><rect class="cls-1" x="4" y="12" width="2" height="2" rx=".6" ry=".6" fill="currentColor"/><rect class="cls-1" x="4" y="18" width="2" height="2" rx=".6" ry=".6" fill="currentColor"/><rect class="cls-1" x="26" y="18" width="2" height="2" rx=".6" ry=".6" fill="currentColor"/><rect class="cls-1" x="8" y="12" width="4" height="2" rx=".6" ry=".6" fill="currentColor"/><rect class="cls-1" x="14" y="12" width="4" height="2" rx=".6" ry=".6" fill="currentColor"/><rect class="cls-1" x="19" y="12" width="4" height="2" rx=".6" ry=".6" fill="currentColor"/><rect class="cls-1" x="24" y="12" width="4" height="2" rx=".6" ry=".6" fill="currentColor"/><rect class="cls-1" y="23" width="32" height="2" rx=".5" ry=".5" fill="currentColor"/><rect class="cls-1" y="7" width="32" height="2" rx=".5" ry=".5" fill="currentColor"/><rect class="cls-1" x="-8" y="15" width="18" height="2" rx=".6" ry=".6" transform="rotate(90 1 16)" fill="currentColor"/><rect class="cls-1" x="22" y="15" width="18" height="2" rx=".6" ry=".6" transform="rotate(90 31 16)" fill="currentColor"/><rect class="cls-1" x="20" y="5" width="6" height="2" rx=".94" ry=".94" transform="rotate(90 23 6)" fill="currentColor"/><rect class="cls-1" x="8" y="18" width="15" height="2" rx=".5" ry=".5" fill="currentColor"/></g></g></symbol><symbol id="nc-bgm-atalhos-4x" viewBox="0 0 48 48"><title>bgm atalhos 4x</title><g><g class="nc-icon-wrapper" fill="currentColor"><title>bgm-atalhos-4x</title><path class="cls-1" d="M29 46.43c-3.86 0-7-2.58-7-5.75v-4.17h2v4.17c0 2 2.29 3.75 5 3.75s5-1.72 5-3.75v-4.17h2v4.17c0 3.17-3.14 5.75-7 5.75z" fill="currentColor"/><path class="cls-1" d="M19.06 11.35h-2V7.41c0-1.85-2.3-3.41-5-3.41S7 5.56 7 7.41v3.94H5V7.41C5 4.43 8.15 2 12 2s7 2.43 7 5.41z" fill="currentColor"/><rect class="cls-1" x="5" y="18" width="2" height="2" rx=".6" ry=".6" fill="currentColor"/><rect class="cls-1" x="5" y="28" width="2" height="2" rx=".6" ry=".6" fill="currentColor"/><rect class="cls-1" x="40" y="28" width="2" height="2" rx=".6" ry=".6" fill="currentColor"/><rect class="cls-1" x="10" y="28" width="26" height="2" rx=".6" ry=".6" fill="currentColor"/><rect class="cls-1" x="10" y="18" width="4" height="2" rx=".6" ry=".6" fill="currentColor"/><rect class="cls-1" x="17" y="18" width="4" height="2" rx=".6" ry=".6" fill="currentColor"/><rect class="cls-1" x="23" y="18" width="4" height="2" rx=".6" ry=".6" fill="currentColor"/><rect class="cls-1" x="29" y="18" width="4" height="2" rx=".6" ry=".6" fill="currentColor"/><rect class="cls-1" x="35" y="18" width="4" height="2" rx=".6" ry=".6" fill="currentColor"/><rect class="cls-1" x="10" y="22" width="4" height="2" rx=".6" ry=".6" fill="currentColor"/><rect class="cls-1" x="17" y="22" width="4" height="2" rx=".6" ry=".6" fill="currentColor"/><rect class="cls-1" x="23" y="22" width="4" height="2" rx=".6" ry=".6" fill="currentColor"/><rect class="cls-1" x="29" y="22" width="4" height="2" rx=".6" ry=".6" fill="currentColor"/><rect class="cls-1" x="40" y="18" width="2" height="2" rx=".6" ry=".6" fill="currentColor"/><rect class="cls-1" y="35" width="48" height="2" rx=".5" ry=".5" fill="currentColor"/><rect class="cls-1" y="11" width="48" height="2" rx=".5" ry=".5" fill="currentColor"/><rect class="cls-1" x="-12" y="23" width="26" height="2" rx=".6" ry=".6" transform="rotate(90 1 24)" fill="currentColor"/><rect class="cls-1" x="34" y="23" width="26" height="2" rx=".6" ry=".6" transform="rotate(90 47 24)" fill="currentColor"/><rect class="cls-1" x="31" y="8" width="8" height="2" rx=".94" ry=".94" transform="rotate(90 35 9)" fill="currentColor"/></g></g></symbol><symbol id="nc-bgm-box-nota-1x" viewBox="0 0 16 16"><title>bgm box nota 1x</title><g><g class="nc-icon-wrapper" fill="currentColor"><title>bgm-box-nota-1x</title><path class="cls-1" fill="currentColor" d="M4.006 2.52l.447-.894 8.193 4.097-.448.894z"/><path class="cls-1" fill="currentColor" d="M8.66 8.6L.25 4.4l.44-.9 7.97 3.99 6.61-3.31.44.9L8.66 8.6z"/><path class="cls-1" fill="currentColor" d="M8 8h1v7.51H8z"/><path class="cls-1" d="M8.16 15.86l-7.6-3.8a1.07 1.07 0 0 1-.59-1V4.3a1.06 1.06 0 0 1 .59-.95L6.82.21a1.06 1.06 0 0 1 .95 0L15.4 4a1.07 1.07 0 0 1 .6 1v6.16a1.07 1.07 0 0 1-.52.91l-6.3 3.75a1 1 0 0 1-1.02.04zm-6.6-4.42l6.56 3.28a1 1 0 0 0 1 0l5.33-3.2a1.05 1.05 0 0 0 .52-.91v-5a1.06 1.06 0 0 0-.59-.95L7.77 1.33a1.06 1.06 0 0 0-.95 0L1.56 4a1.07 1.07 0 0 0-.59 1v5.58a1.06 1.06 0 0 0 .59.86z" fill="currentColor"/></g></g></symbol><symbol id="nc-bgm-box-nota-2x" viewBox="0 0 24 24"><title>bgm box nota 2x</title><g><g class="nc-icon-wrapper" fill="currentColor"><title>bgm-box-nota-2x</title><path class="cls-1" fill="currentColor" d="M6.017 4.106l.924-1.774 11.492 5.99-.924 1.774z"/><path class="cls-1" fill="currentColor" d="M12.73 12.94L.55 6.85l.9-1.79 11.28 5.64 9.82-4.91.9 1.79-10.72 5.36z"/><path class="cls-1" fill="currentColor" d="M11.73 11.82h2v9.53h-2z"/><path class="cls-1" d="M12.21 22.21L.64 16.43a1.17 1.17 0 0 1-.64-1V6.06A1.18 1.18 0 0 1 .64 5l10.11-5a1.19 1.19 0 0 1 1 0l11.61 5.75a1.16 1.16 0 0 1 .64 1v9.33a1.17 1.17 0 0 1-.64 1l-10.11 5.13a1.12 1.12 0 0 1-1.04 0zm-9.57-7L12.21 20a1.19 1.19 0 0 0 1 0l8.11-4.06a1.16 1.16 0 0 0 .64-1V8a1.17 1.17 0 0 0-.64-1l-9.53-4.8a1.19 1.19 0 0 0-1 0L2.64 6.25a1.17 1.17 0 0 0-.64 1v6.86a1.17 1.17 0 0 0 .64 1.08z" fill="currentColor"/></g></g></symbol><symbol id="nc-bgm-box-nota-3x" viewBox="0 0 32 32"><title>bgm box nota 3x</title><g><g class="nc-icon-wrapper" fill="currentColor"><title>bgm-box-nota-3x</title><path class="cls-1" fill="currentColor" d="M8.01 5.744l.925-1.774 15.669 8.168-.925 1.773z"/><path class="cls-1" d="M12.83 24.66l-8.39-4.2a.78.78 0 0 1-.44-.72v-5a.8.8 0 0 1 1.16-.71l8.4 4.19A.82.82 0 0 1 14 19v5a.8.8 0 0 1-1.17.66zM6 19l6 3v-2.29l-6-3z" fill="currentColor"/><path class="cls-1" fill="currentColor" d="M16.99 17.71L.55 9.49l.89-1.79 15.55 7.77L30.55 8.7l.89 1.79-14.45 7.22z"/><path class="cls-1" fill="currentColor" d="M15.99 16.59h2v14h-2z"/><path class="cls-1" d="M16.37 31.4L.77 23.6A1.4 1.4 0 0 1 0 22.34V8.84a1.38 1.38 0 0 1 .77-1.25l13.6-6.8a1.38 1.38 0 0 1 1.25 0l15.6 7.8A1.39 1.39 0 0 1 32 9.84v13.5a1.41 1.41 0 0 1-.77 1.26l-13.6 6.8a1.38 1.38 0 0 1-1.26 0zm-13.6-9l13.6 6.8a1.38 1.38 0 0 0 1.25 0l11.6-5.8a1.39 1.39 0 0 0 .78-1.29v-11a1.42 1.42 0 0 0-.77-1.26L15.62 3a1.44 1.44 0 0 0-1.25 0L2.77 8.82A1.41 1.41 0 0 0 2 10.08v11a1.38 1.38 0 0 0 .77 1.28z" fill="currentColor"/></g></g></symbol><symbol id="nc-bgm-box-nota-4x" viewBox="0 0 48 48"><title>bgm box nota 4x</title><g><g class="nc-icon-wrapper" fill="currentColor"><title>bgm-box-nota-4x</title><path class="cls-1" fill="currentColor" d="M12.115 8.206l.924-1.774 24.058 12.54-.924 1.774z"/><path class="cls-1" d="M19.09 37l-12.3-6.11a1 1 0 0 1-.55-.89v-7a1 1 0 0 1 1.44-.89L20 28.29a1 1 0 0 1 .55.89v7a1 1 0 0 1-1.46.82zM8.34 29.42l9.93 5a.18.18 0 0 0 .26-.16v-4.35a.18.18 0 0 0-.1-.16l-9.94-5a.18.18 0 0 0-.25.16v4.33a.18.18 0 0 0 .1.18z" fill="currentColor"/><path class="cls-1" fill="currentColor" d="M25.67 26.46L.65 13.95l.89-1.79 24.13 12.07L46.72 13.7l.89 1.79-21.94 10.97z"/><path class="cls-1" fill="currentColor" d="M25 25h2v21h-2z"/><path class="cls-1" d="M24.69 47.51L1.19 35.72A2 2 0 0 1 .1 34V13.66a2 2 0 0 1 1.09-1.77L21.63 1.64a1.93 1.93 0 0 1 1.78 0l23.5 11.79A2 2 0 0 1 48 15.2v20.29a2 2 0 0 1-1.09 1.77L26.47 47.51a1.93 1.93 0 0 1-1.78 0zm-21.5-13l21.5 10.79a2 2 0 0 0 1.78 0L44.91 36A2 2 0 0 0 46 34.25V16.43a2 2 0 0 0-1.09-1.77L23.41 3.87a2 2 0 0 0-1.78 0L3.19 13.13A2 2 0 0 0 2.1 14.9v17.82a2 2 0 0 0 1.09 1.77z" fill="currentColor"/></g></g></symbol><symbol id="nc-bgm-calendar-1x" viewBox="0 0 16 16"><title>bgm calendar 1x</title><g><g class="nc-icon-wrapper" fill="currentColor"><title>bgm-calendar-x1</title><path class="cls-1" d="M15 2h-2V.58a.58.58 0 0 0-.58-.58h-1.84a.58.58 0 0 0-.58.58V2H6V.58A.58.58 0 0 0 5.42 0H3.58A.58.58 0 0 0 3 .58V2H1a1 1 0 0 0-1 1v12a1 1 0 0 0 1 1h14a1 1 0 0 0 1-1V3a1 1 0 0 0-1-1zm-1 12H2V5h12z" fill="currentColor"/><rect class="cls-1" x="4" y="7" width="2" height="2" rx=".52" ry=".52" fill="currentColor"/><rect class="cls-1" x="7" y="7" width="2" height="2" rx=".52" ry=".52" fill="currentColor"/><rect class="cls-1" x="4" y="10" width="2" height="2" rx=".52" ry=".52" fill="currentColor"/><rect class="cls-1" x="7" y="10" width="2" height="2" rx=".52" ry=".52" fill="currentColor"/><rect class="cls-1" x="10" y="7" width="2" height="2" rx=".52" ry=".52" fill="currentColor"/><rect class="cls-1" x="10" y="10" width="2" height="2" rx=".52" ry=".52" fill="currentColor"/></g></g></symbol><symbol id="nc-bgm-calendar-2x" viewBox="0 0 24 24"><title>bgm calendar 2x</title><g><g class="nc-icon-wrapper" fill="currentColor"><title>bgm-calendar-2x</title><path class="cls-1" d="M22.5 3h-3V.87a.87.87 0 0 0-.87-.87h-2.76a.87.87 0 0 0-.87.87V3H9V.87A.87.87 0 0 0 8.13 0H5.37a.87.87 0 0 0-.87.87V3h-3A1.5 1.5 0 0 0 0 4.5v18A1.5 1.5 0 0 0 1.5 24h21a1.5 1.5 0 0 0 1.5-1.5v-18A1.5 1.5 0 0 0 22.5 3zM21 21H3V7.5h18z" fill="currentColor"/><rect class="cls-1" x="6" y="10.5" width="3" height="3" rx=".78" ry=".78" fill="currentColor"/><rect class="cls-1" x="10.5" y="10.5" width="3" height="3" rx=".78" ry=".78" fill="currentColor"/><rect class="cls-1" x="6" y="15" width="3" height="3" rx=".78" ry=".78" fill="currentColor"/><rect class="cls-1" x="10.5" y="15" width="3" height="3" rx=".78" ry=".78" fill="currentColor"/><rect class="cls-1" x="15" y="10.5" width="3" height="3" rx=".78" ry=".78" fill="currentColor"/><rect class="cls-1" x="15" y="15" width="3" height="3" rx=".78" ry=".78" fill="currentColor"/></g></g></symbol><symbol id="nc-bgm-calendar-3x" viewBox="0 0 32 32"><title>bgm calendar 3x</title><g><g class="nc-icon-wrapper" fill="currentColor"><title>bgm-calendar-3x</title><path class="cls-1" d="M30 4h-4V1.16A1.16 1.16 0 0 0 24.84 0h-3.68A1.16 1.16 0 0 0 20 1.16V4h-8V1.16A1.16 1.16 0 0 0 10.84 0H7.16A1.16 1.16 0 0 0 6 1.16V4H2a2 2 0 0 0-2 2v24a2 2 0 0 0 2 2h28a2 2 0 0 0 2-2V6a2 2 0 0 0-2-2zm-2 24H4V10h24z" fill="currentColor"/><rect class="cls-1" x="8" y="14" width="4" height="4" rx="1.05" ry="1.05" fill="currentColor"/><rect class="cls-1" x="14" y="14" width="4" height="4" rx="1.05" ry="1.05" fill="currentColor"/><rect class="cls-1" x="8" y="20" width="4" height="4" rx="1.05" ry="1.05" fill="currentColor"/><rect class="cls-1" x="14" y="20" width="4" height="4" rx="1.05" ry="1.05" fill="currentColor"/><rect class="cls-1" x="20" y="14" width="4" height="4" rx="1.05" ry="1.05" fill="currentColor"/><rect class="cls-1" x="20" y="20" width="4" height="4" rx="1.05" ry="1.05" fill="currentColor"/></g></g></symbol><symbol id="nc-bgm-calendar-4x" viewBox="0 0 48 48"><title>bgm calendar 4x</title><g><g class="nc-icon-wrapper" fill="currentColor"><title>bgm-calendar-4x</title><path class="cls-1" d="M45 6h-6V1.74A1.74 1.74 0 0 0 37.26 0h-5.52A1.74 1.74 0 0 0 30 1.74V6H18V1.74A1.74 1.74 0 0 0 16.26 0h-5.52A1.74 1.74 0 0 0 9 1.74V6H3a3 3 0 0 0-3 3v36a3 3 0 0 0 3 3h42a3 3 0 0 0 3-3V9a3 3 0 0 0-3-3zm-3 36H6V15h36z" fill="currentColor"/><rect class="cls-1" x="12" y="21" width="6" height="6" rx="1.57" ry="1.57" fill="currentColor"/><rect class="cls-1" x="21" y="21" width="6" height="6" rx="1.57" ry="1.57" fill="currentColor"/><rect class="cls-1" x="12" y="30" width="6" height="6" rx="1.57" ry="1.57" fill="currentColor"/><rect class="cls-1" x="21" y="30" width="6" height="6" rx="1.57" ry="1.57" fill="currentColor"/><rect class="cls-1" x="30" y="21" width="6" height="6" rx="1.57" ry="1.57" fill="currentColor"/><rect class="cls-1" x="30" y="30" width="6" height="6" rx="1.57" ry="1.57" fill="currentColor"/></g></g></symbol><symbol id="nc-bgm-cubagem-1x" viewBox="0 0 16 16"><title>bgm cubagem 1x</title><g><g class="nc-icon-wrapper" fill="currentColor"><title>bgm-cubagem-1x</title><path class="cls-1" d="M2.5 16A2.5 2.5 0 1 1 5 13.5 2.5 2.5 0 0 1 2.5 16zm0-4A1.5 1.5 0 1 0 4 13.5 1.5 1.5 0 0 0 2.5 12z" fill="currentColor"/><rect class="cls-1" x="5" y="1" width="10" height="1" rx=".5" ry=".5" fill="currentColor"/><rect class="cls-1" x="4" y="13" width="12" height="1" rx=".5" ry=".5" fill="currentColor"/><rect class="cls-1" x="5" y="10" width="10" height="1" rx=".5" ry=".5" fill="currentColor"/><rect class="cls-1" x="9.5" y="5.5" width="10" height="1" rx=".5" ry=".5" transform="rotate(90 14.5 6)" fill="currentColor"/><rect class="cls-1" x=".5" y="5.5" width="10" height="1" rx=".5" ry=".5" transform="rotate(90 5.5 6)" fill="currentColor"/><rect class="cls-1" x="-3.5" y="5.5" width="12" height="1" rx=".5" ry=".5" transform="rotate(90 2.5 6)" fill="currentColor"/><rect class="cls-1" width="3" height="1" rx=".5" ry=".5" fill="currentColor"/></g></g></symbol><symbol id="nc-bgm-cubagem-2x" viewBox="0 0 24 24"><title>bgm cubagem 2x</title><g><g class="nc-icon-wrapper" fill="currentColor"><title>bgm-cubagem-2x</title><path class="cls-1" d="M3 24a3 3 0 1 1 3-3 3 3 0 0 1-3 3zm0-4.29A1.29 1.29 0 1 0 4.29 21 1.29 1.29 0 0 0 3 19.71z" fill="currentColor"/><rect class="cls-1" width="4" height="2" rx="1" ry="1" fill="currentColor"/><rect class="cls-1" x="5" y="20" width="19" height="2" rx="1" ry="1" fill="currentColor"/><rect class="cls-1" x="5" y="3" width="19" height="2" rx="1" ry="1" fill="currentColor"/><rect class="cls-1" x="5" y="7" width="19" height="2" rx="1" ry="1" fill="currentColor"/><rect class="cls-1" x="7" y="17" width="15" height="2" rx="1" ry="1" fill="currentColor"/><rect class="cls-1" x="-6.5" y="8.5" width="19" height="2" rx="1" ry="1" transform="rotate(90 3 9.5)" fill="currentColor"/><rect class="cls-1" x="5" y="3" width="2" height="6" rx="1" ry="1" fill="currentColor"/><rect class="cls-1" x="22" y="3" width="2" height="6" rx="1" ry="1" fill="currentColor"/><rect class="cls-1" x="7" y="7" width="2" height="12" rx="1" ry="1" fill="currentColor"/><rect class="cls-1" x="20" y="7" width="2" height="12" rx="1" ry="1" fill="currentColor"/></g></g></symbol><symbol id="nc-bgm-cubagem-3x" viewBox="0 0 32 32"><title>bgm cubagem 3x</title><g><g class="nc-icon-wrapper" fill="currentColor"><title>bgm-cubagem-3x</title><path class="cls-1" d="M3 32a3 3 0 1 1 3-3 3 3 0 0 1-3 3zm0-4.29A1.29 1.29 0 1 0 4.29 29 1.29 1.29 0 0 0 3 27.71z" fill="currentColor"/><rect class="cls-1" width="4" height="2" rx="1" ry="1" fill="currentColor"/><rect class="cls-1" x="5" y="28" width="27" height="2" rx="1" ry="1" fill="currentColor"/><rect class="cls-1" x="7" y="5" width="22" height="2" rx="1" ry="1" fill="currentColor"/><rect class="cls-1" x="7" y="11" width="22" height="2" rx="1" ry="1" fill="currentColor"/><rect class="cls-1" x="9" y="24" width="18" height="2" rx="1" ry="1" fill="currentColor"/><rect class="cls-1" x="-10.5" y="12.5" width="27" height="2" rx="1" ry="1" transform="rotate(90 3 13.5)" fill="currentColor"/><rect class="cls-1" x="7" y="5" width="2" height="8" rx="1" ry="1" fill="currentColor"/><rect class="cls-1" x="27" y="5" width="2" height="8" rx="1" ry="1" fill="currentColor"/><rect class="cls-1" x="9" y="11" width="2" height="15" rx="1" ry="1" fill="currentColor"/><rect class="cls-1" x="25" y="11" width="2" height="15" rx="1" ry="1" fill="currentColor"/></g></g></symbol><symbol id="nc-bgm-cubagem-4x" viewBox="0 0 48 48"><title>bgm cubagem 4x</title><g><g class="nc-icon-wrapper" fill="currentColor"><title>bgm-cubagem-4x</title><path class="cls-1" d="M5 48a5 5 0 1 1 5-5 5 5 0 0 1-5 5zm0-7.14A2.14 2.14 0 1 0 7.14 43 2.14 2.14 0 0 0 5 40.86z" fill="currentColor"/><rect class="cls-1" width="6" height="2" rx="1" ry="1" fill="currentColor"/><rect class="cls-1" x="8" y="42" width="40" height="2" rx="1" ry="1" fill="currentColor"/><rect class="cls-1" x="9" y="6" width="35" height="2" rx="1" ry="1" fill="currentColor"/><rect class="cls-1" x="9" y="14" width="35" height="2" rx="1" ry="1" fill="currentColor"/><rect class="cls-1" x="12" y="37" width="29" height="2" rx="1" ry="1" fill="currentColor"/><rect class="cls-1" x="9" y="6" width="2" height="10" rx="1" ry="1" fill="currentColor"/><rect class="cls-1" x="42" y="6" width="2" height="10" rx="1" ry="1" fill="currentColor"/><rect class="cls-1" x="12" y="14" width="2" height="25" rx="1" ry="1" fill="currentColor"/><rect class="cls-1" x="4" width="2" height="39" rx="1" ry="1" fill="currentColor"/><rect class="cls-1" x="39" y="14" width="2" height="25" rx="1" ry="1" fill="currentColor"/></g></g></symbol><symbol id="nc-bgm-help-1x" viewBox="0 0 16 16"><title>bgm help 1x</title><g><g class="nc-icon-wrapper" fill="currentColor"><title>bgm-help-1x</title><rect class="cls-1" width="1" height="16" rx=".5" ry=".5" fill="currentColor"/><rect class="cls-1" x="15" width="1" height="16" rx=".5" ry=".5" fill="currentColor"/><rect class="cls-1" x="7.5" y="-7.5" width="1" height="16" rx=".5" ry=".5" transform="rotate(90 8 .5)" fill="currentColor"/><rect class="cls-1" x="7.5" y="7.5" width="1" height="16" rx=".5" ry=".5" transform="rotate(90 8 15.5)" fill="currentColor"/><path d="M5.16 5.75a2.58 2.58 0 0 1 .2-.83 2.42 2.42 0 0 1 .54-.79 2.79 2.79 0 0 1 .88-.57A3.2 3.2 0 0 1 8 3.33a3.42 3.42 0 0 1 1.12.18A3.05 3.05 0 0 1 10 4a2.26 2.26 0 0 1 .59.75 2.11 2.11 0 0 1 .21.93 1.93 1.93 0 0 1-.17.87 2.42 2.42 0 0 1-.42.65 5.39 5.39 0 0 1-.54.53 6.68 6.68 0 0 0-.55.5 2.28 2.28 0 0 0-.42.56 1.47 1.47 0 0 0-.17.72v.18a.34.34 0 0 1-.33.33h-.42a.33.33 0 0 1-.24-.1.29.29 0 0 1-.1-.23v-.26a2.11 2.11 0 0 1 .17-.87A2.59 2.59 0 0 1 8 7.91a5.53 5.53 0 0 1 .55-.53c.19-.16.37-.32.54-.49a2.63 2.63 0 0 0 .42-.54 1.24 1.24 0 0 0 .17-.67 1.1 1.1 0 0 0-.14-.55 1.15 1.15 0 0 0-.38-.41 2.23 2.23 0 0 0-.54-.25A2.57 2.57 0 0 0 8 4.39a1.93 1.93 0 0 0-1.11.32 1.66 1.66 0 0 0-.63 1 .33.33 0 0 1-.1.29A.37.37 0 0 1 6 6h-.57a.28.28 0 0 1-.2-.09.22.22 0 0 1-.07-.16z"/><path d="M9 12.51a.47.47 0 0 1-.15.35.46.46 0 0 1-.34.14h-1a.48.48 0 0 1-.51-.49v-1a.48.48 0 0 1 .49-.51h1a.46.46 0 0 1 .34.14.47.47 0 0 1 .15.35z"/></g></g></symbol><symbol id="nc-bgm-help-2x" viewBox="0 0 24 24"><title>bgm help 2x</title><g><g class="nc-icon-wrapper" fill="currentColor"><title>bgm-help-2x</title><rect class="cls-1" width="2" height="24" rx=".62" ry=".62" fill="currentColor"/><rect class="cls-1" x="11" y="-11" width="2" height="24" rx=".62" ry=".62" transform="rotate(90 12 1)" fill="currentColor"/><rect class="cls-1" x="11" y="11" width="2" height="24" rx=".62" ry=".62" transform="rotate(90 12 23)" fill="currentColor"/><rect class="cls-1" x="22" width="2" height="24" rx=".62" ry=".62" fill="currentColor"/><path d="M7.74 8.63a3.75 3.75 0 0 1 .31-1.26 3.49 3.49 0 0 1 .8-1.17 4.15 4.15 0 0 1 1.33-.87A4.83 4.83 0 0 1 12 5a5 5 0 0 1 1.68.27 4.53 4.53 0 0 1 1.38.73A3.56 3.56 0 0 1 16 7.12a3.18 3.18 0 0 1 .31 1.4A3.09 3.09 0 0 1 16 9.83a4.11 4.11 0 0 1-.63 1 8.72 8.72 0 0 1-.82.79c-.29.24-.57.49-.82.74a3.93 3.93 0 0 0-.63.84 2.2 2.2 0 0 0-.25 1.09v.26a.47.47 0 0 1-.15.35.49.49 0 0 1-.36.15h-.68a.49.49 0 0 1-.36-.15.47.47 0 0 1-.15-.35v-.39a3.08 3.08 0 0 1 .26-1.3 3.52 3.52 0 0 1 .63-1 6.13 6.13 0 0 1 .82-.79c.29-.25.56-.49.82-.75a4 4 0 0 0 .63-.81 1.9 1.9 0 0 0 .25-1 1.54 1.54 0 0 0-.22-.83 2 2 0 0 0-.56-.61 3 3 0 0 0-.78-.36 3.74 3.74 0 0 0-1-.13 2.76 2.76 0 0 0-1.66.49 2.56 2.56 0 0 0-1 1.56.46.46 0 0 1-.18.31A.51.51 0 0 1 9 9h-.8a.44.44 0 0 1-.3-.12.33.33 0 0 1-.16-.25z"/><path d="M13 18.51a.47.47 0 0 1-.15.35.46.46 0 0 1-.34.14h-1a.48.48 0 0 1-.49-.49v-1a.48.48 0 0 1 .49-.49h1a.46.46 0 0 1 .34.14.47.47 0 0 1 .15.35z"/></g></g></symbol><symbol id="nc-bgm-help-3x" viewBox="0 0 32 32"><title>bgm help 3x</title><g><g class="nc-icon-wrapper" fill="currentColor"><title>bgm-help-3x</title><rect class="cls-1" width="2" height="32" rx=".62" ry=".62" fill="currentColor"/><rect class="cls-1" x="15" y="-15" width="2" height="32" rx=".62" ry=".62" transform="rotate(90 16 1)" fill="currentColor"/><rect class="cls-1" x="15" y="15" width="2" height="32" rx=".62" ry=".62" transform="rotate(90 16 31)" fill="currentColor"/><rect class="cls-1" x="30" width="2" height="32" rx=".62" ry=".62" fill="currentColor"/><path d="M11.74 12.63a3.75 3.75 0 0 1 .31-1.26 3.49 3.49 0 0 1 .8-1.17 4.15 4.15 0 0 1 1.33-.87A4.83 4.83 0 0 1 16 9a5 5 0 0 1 1.68.27 4.53 4.53 0 0 1 1.34.73 3.56 3.56 0 0 1 .98 1.12 3.18 3.18 0 0 1 .31 1.4 3.09 3.09 0 0 1-.31 1.31 4.11 4.11 0 0 1-.63 1 8.72 8.72 0 0 1-.82.79c-.29.24-.57.49-.82.74a3.93 3.93 0 0 0-.63.84 2.2 2.2 0 0 0-.25 1.09v.26a.47.47 0 0 1-.15.35.49.49 0 0 1-.36.15h-.68a.49.49 0 0 1-.36-.15.47.47 0 0 1-.15-.35v-.39a3.08 3.08 0 0 1 .26-1.3 3.52 3.52 0 0 1 .63-1 6.13 6.13 0 0 1 .82-.79c.29-.25.56-.49.82-.75a4 4 0 0 0 .63-.81 1.9 1.9 0 0 0 .25-1 1.54 1.54 0 0 0-.22-.83 2 2 0 0 0-.56-.61 3 3 0 0 0-.81-.37 3.74 3.74 0 0 0-.94-.13 2.76 2.76 0 0 0-1.66.49 2.56 2.56 0 0 0-1 1.56.46.46 0 0 1-.18.31.51.51 0 0 1-.3.1h-.8a.44.44 0 0 1-.3-.12.33.33 0 0 1-.05-.28z"/><path d="M17 22.51a.47.47 0 0 1-.15.35.46.46 0 0 1-.34.14h-1a.48.48 0 0 1-.49-.49v-1a.48.48 0 0 1 .49-.49h1a.46.46 0 0 1 .34.14.47.47 0 0 1 .15.35z"/></g></g></symbol><symbol id="nc-bgm-help-4x" viewBox="0 0 48 48"><title>bgm help 4x</title><g><g class="nc-icon-wrapper" fill="currentColor"><title>bgm-help-4x</title><rect class="cls-1" width="2" height="48" rx=".62" ry=".62" fill="currentColor"/><rect class="cls-1" x="23" y="-23" width="2" height="48" rx=".62" ry=".62" transform="rotate(90 24 1)" fill="currentColor"/><rect class="cls-1" x="23" y="23" width="2" height="48" rx=".62" ry=".62" transform="rotate(90 24 47)" fill="currentColor"/><rect class="cls-1" x="46" width="2" height="48" rx=".62" ry=".62" fill="currentColor"/><path d="M15 15.8a8.32 8.32 0 0 1 .64-2.66 7.58 7.58 0 0 1 1.7-2.48 8.66 8.66 0 0 1 2.81-1.83 10.06 10.06 0 0 1 3.95-.71 10.76 10.76 0 0 1 3.56.57 9.34 9.34 0 0 1 2.84 1.55 7.05 7.05 0 0 1 1.87 2.37 6.61 6.61 0 0 1 .67 3 6.69 6.69 0 0 1-.53 2.78 8.19 8.19 0 0 1-1.34 2.07 16.14 16.14 0 0 1-1.74 1.67c-.61.51-1.19 1-1.73 1.58a7.79 7.79 0 0 0-1.34 1.77 4.81 4.81 0 0 0-.53 2.31v.55a1.06 1.06 0 0 1-1.06 1.06h-1.45a1.06 1.06 0 0 1-1.06-1.06v-.83a6.47 6.47 0 0 1 .53-2.74 8.28 8.28 0 0 1 1.33-2.06A15.32 15.32 0 0 1 25.86 21c.61-.51 1.19-1 1.73-1.58a7.94 7.94 0 0 0 1.34-1.71 4.06 4.06 0 0 0 .53-2.13 3.4 3.4 0 0 0-.46-1.77 4 4 0 0 0-1.2-1.28 5.83 5.83 0 0 0-1.71-.79 7.4 7.4 0 0 0-2-.27 6 6 0 0 0-3.51 1 5.42 5.42 0 0 0-2 3.31 1 1 0 0 1-.39.65 1.1 1.1 0 0 1-.64.22h-1.68a.91.91 0 0 1-.63-.26.69.69 0 0 1-.24-.59z"/><path d="M26 34a1 1 0 0 1-1 1h-2a.94.94 0 0 1-.68-.29A.9.9 0 0 1 22 34v-2a.9.9 0 0 1 .29-.68A.94.94 0 0 1 23 31h2a1 1 0 0 1 1 1z"/></g></g></symbol><symbol id="nc-bgm-parametrizacoes-1x" viewBox="0 0 16 16"><title>bgm parametrizacoes 1x</title><g><g class="nc-icon-wrapper" fill="currentColor"><title>bgm-check-x</title><path class="cls-1" d="M11 10v5a1 1 0 0 0 2 0v-5a1 1 0 0 0-2 0z" fill="currentColor"/><path class="cls-1" d="M16 6V3a.94.94 0 0 0-1-1h-2V1a1 1 0 0 0-2 0v1H9a.94.94 0 0 0-1 1v3a.94.94 0 0 0 1 1h6a.94.94 0 0 0 1-1z" fill="currentColor"/><path class="cls-1" d="M4 0a.94.94 0 0 0-1 1v5a.94.94 0 0 0 1 1 .94.94 0 0 0 1-1V1a.94.94 0 0 0-1-1z" fill="currentColor"/><path class="cls-1" d="M1 14h2v1a.94.94 0 0 0 1 1 .94.94 0 0 0 1-1v-1h2a.94.94 0 0 0 1-1v-3a.94.94 0 0 0-1-1H1a.94.94 0 0 0-1 1v3a.94.94 0 0 0 1 1z" fill="currentColor"/></g></g></symbol><symbol id="nc-bgm-parametrizacoes-2x" viewBox="0 0 24 24"><title>bgm parametrizacoes 2x</title><g><g class="nc-icon-wrapper" fill="currentColor"><title>bgm-check-2x</title><path class="cls-1" d="M16.5 15v7.5a1.5 1.5 0 0 0 3 0V15a1.5 1.5 0 0 0-3 0z" fill="currentColor"/><path class="cls-1" d="M24 9V4.5A1.42 1.42 0 0 0 22.5 3h-3V1.5a1.5 1.5 0 0 0-3 0V3h-3A1.42 1.42 0 0 0 12 4.5V9a1.42 1.42 0 0 0 1.5 1.5h9A1.42 1.42 0 0 0 24 9z" fill="currentColor"/><path class="cls-1" d="M6 0a1.42 1.42 0 0 0-1.5 1.5V9A1.42 1.42 0 0 0 6 10.5 1.42 1.42 0 0 0 7.5 9V1.5A1.42 1.42 0 0 0 6 0z" fill="currentColor"/><path class="cls-1" d="M1.5 21h3v1.5A1.42 1.42 0 0 0 6 24a1.42 1.42 0 0 0 1.5-1.5V21h3a1.42 1.42 0 0 0 1.5-1.5V15a1.42 1.42 0 0 0-1.5-1.5h-9A1.42 1.42 0 0 0 0 15v4.5A1.42 1.42 0 0 0 1.5 21z" fill="currentColor"/></g></g></symbol><symbol id="nc-bgm-parametrizacoes-3x" viewBox="0 0 32 32"><title>bgm parametrizacoes 3x</title><g><g class="nc-icon-wrapper"><title>bgm-check-3x</title><path class="cls-1" d="M22 20v10a2 2 0 0 0 4 0V20a2 2 0 0 0-4 0z" fill="#111"/><path class="cls-1" d="M32 12V6a1.89 1.89 0 0 0-2-2h-4V2a2 2 0 0 0-4 0v2h-4a1.89 1.89 0 0 0-2 2v6a1.89 1.89 0 0 0 2 2h12a1.89 1.89 0 0 0 2-2z" fill="#111"/><path class="cls-1" d="M8 0a1.89 1.89 0 0 0-2 2v10a1.89 1.89 0 0 0 2 2 1.89 1.89 0 0 0 2-2V2a1.89 1.89 0 0 0-2-2z" fill="#111"/><path class="cls-1" d="M2 28h4v2a1.89 1.89 0 0 0 2 2 1.89 1.89 0 0 0 2-2v-2h4a1.89 1.89 0 0 0 2-2v-6a1.89 1.89 0 0 0-2-2H2a1.89 1.89 0 0 0-2 2v6a1.89 1.89 0 0 0 2 2z" fill="#111"/></g></g></symbol><symbol id="nc-bgm-parametrizacoes-4x" viewBox="0 0 48 48"><title>bgm parametrizacoes 4x</title><g><g class="nc-icon-wrapper" fill="currentColor"><title>bgm-check-4x</title><path class="cls-1" d="M33 30v15a3 3 0 0 0 6 0V30a3 3 0 0 0-6 0z" fill="currentColor"/><path class="cls-1" d="M48 18V9a2.83 2.83 0 0 0-3-3h-6V3a3 3 0 0 0-6 0v3h-6a2.83 2.83 0 0 0-3 3v9a2.83 2.83 0 0 0 3 3h18a2.83 2.83 0 0 0 3-3z" fill="currentColor"/><path class="cls-1" d="M12 0a2.83 2.83 0 0 0-3 3v15a2.83 2.83 0 0 0 3 3 2.83 2.83 0 0 0 3-3V3a2.83 2.83 0 0 0-3-3z" fill="currentColor"/><path class="cls-1" d="M3 42h6v3a2.83 2.83 0 0 0 3 3 2.83 2.83 0 0 0 3-3v-3h6a2.83 2.83 0 0 0 3-3v-9a2.83 2.83 0 0 0-3-3H3a2.83 2.83 0 0 0-3 3v9a2.83 2.83 0 0 0 3 3z" fill="currentColor"/></g></g></symbol><symbol id="nc-bgm-pin2-1x" viewBox="0 0 16 16"><title>bgm pin2 1x</title><g><g class="nc-icon-wrapper" fill="currentColor"><title>bgm-pin2-1x</title><path class="cls-1" d="M10.5 14.68l-.37-.39s-.68-.73-1.59-1.9l.79-.61c.48.61.89 1.1 1.16 1.42C12 11.44 15 7.59 15 5.44A4.43 4.43 0 0 0 10.49 1 4.86 4.86 0 0 0 8 1.75L7.44.91A5.83 5.83 0 0 1 10.49 0 5.41 5.41 0 0 1 16 5.44c0 3.2-4.92 8.62-5.13 8.85z" fill="currentColor"/><path class="cls-1" d="M6 16.21l-.35-.36C5.41 15.62 0 10.16 0 6.71A6.17 6.17 0 0 1 6 .52a6.17 6.17 0 0 1 6 6.19c0 3.45-5.41 8.91-5.64 9.14zM6 1.52a5.23 5.23 0 0 0-5 5.19C1 9.05 4.32 13 6 14.78c1.66-1.78 5-5.73 5-8.07a5.23 5.23 0 0 0-5-5.19z" fill="currentColor"/><path class="cls-1" d="M6 9.52a2.57 2.57 0 0 1 0-5.14 2.57 2.57 0 0 1 0 5.14zm0-4.14a1.57 1.57 0 0 0 0 3.14 1.57 1.57 0 0 0 0-3.14z" fill="currentColor"/></g></g></symbol><symbol id="nc-bgm-pin2-2x" viewBox="0 0 24 24"><title>bgm pin2 2x</title><g><g class="nc-icon-wrapper" fill="currentColor"><title>bgm-pin2-2x</title><path class="cls-1" d="M15.65 21.42l-.37-.4S14.3 20 13 18.27l.78-.62c.82 1.05 1.49 1.83 1.89 2.28 1.46-1.67 6.79-8 6.79-11.67a6.68 6.68 0 0 0-6.79-6.7 7.31 7.31 0 0 0-3.8 1.13l-.53-.85A8.3 8.3 0 0 1 15.65.56a7.67 7.67 0 0 1 7.79 7.7c0 4.59-7.12 12.43-7.42 12.76z" fill="currentColor"/><path class="cls-1" d="M9.08 23.65l-.35-.35C8.39 23 .56 15.05.56 10.11a8.78 8.78 0 0 1 8.52-8.8 8.79 8.79 0 0 1 8.53 8.8c0 4.94-7.84 12.85-8.17 13.19zm0-21.34a7.77 7.77 0 0 0-7.52 7.8c0 4 6 10.51 7.52 12.11 1.54-1.6 7.53-8.14 7.53-12.11a7.77 7.77 0 0 0-7.53-7.8z" fill="currentColor"/><path class="cls-1" d="M9.08 14a3.52 3.52 0 0 1 0-7 3.52 3.52 0 0 1 0 7zm0-6a2.52 2.52 0 0 0 0 5 2.52 2.52 0 0 0 0-5z" fill="currentColor"/></g></g></symbol><symbol id="nc-bgm-pin2-3x" viewBox="0 0 32 32"><title>bgm pin2 3x</title><g><g class="nc-icon-wrapper" fill="currentColor"><title>bgm-pin2-3x</title><path class="cls-1" d="M21.06 29.5l-.73-.79c-.06-.06-1.38-1.47-3.22-3.83l1.58-1.23c1 1.25 1.81 2.24 2.36 2.88 3.1-3.56 9.12-11.36 9.12-15.71a9 9 0 0 0-9.11-9A10 10 0 0 0 16 3.35l-1.11-1.69a11.92 11.92 0 0 1 6.17-1.83 11 11 0 0 1 11.11 11c0 6.47-10 17.42-10.38 17.88z" fill="currentColor"/><path class="cls-1" d="M12 32.58l-.71-.71C10.78 31.41-.17 20.35-.17 13.39A12.49 12.49 0 0 1 12 .88a12.48 12.48 0 0 1 12.08 12.51c0 7-10.95 18-11.42 18.48zm0-29.7A10.59 10.59 0 0 0 1.83 13.39c0 4.74 6.75 12.8 10.12 16.34 2.4-2.54 10.13-11.13 10.13-16.34A10.59 10.59 0 0 0 12 2.88z" fill="currentColor"/><path class="cls-1" d="M12 19.06a5.19 5.19 0 0 1 0-10.37 5.19 5.19 0 0 1 0 10.37zm0-8.37a3.19 3.19 0 0 0 0 6.37 3.19 3.19 0 0 0 0-6.37z" fill="currentColor"/></g></g></symbol><symbol id="nc-bgm-pin2-4x" viewBox="0 0 48 48"><title>bgm pin2 4x</title><g><g class="nc-icon-wrapper" fill="currentColor"><title>bgm-pin2-4x</title><path class="cls-1" d="M31.67 43.71l-.73-.79c-.09-.09-2.07-2.21-4.85-5.78l1.58-1.23c1.73 2.23 3.17 3.91 4 4.83C34.68 37.29 46 23.85 46 16.14 46 7.29 38.71 2 31.67 2a15.48 15.48 0 0 0-8 2.39l-1.06-1.7A17.51 17.51 0 0 1 31.67 0C39.7 0 48 6 48 16.14c0 9.62-15 26.08-15.6 26.78z" fill="currentColor"/><path class="cls-1" d="M17.87 48.42l-.71-.71C16.46 47 0 30.39 0 20A18.41 18.41 0 0 1 17.87 1.59 18.4 18.4 0 0 1 35.73 20c0 10.36-16.45 27-17.16 27.68zm0-44.83A16.38 16.38 0 0 0 2 20c0 8.4 12.7 22.22 15.87 25.53C21 42.25 33.73 28.42 33.73 20A16.38 16.38 0 0 0 17.87 3.59z" fill="currentColor"/><path class="cls-1" d="M17.87 28.12a7.35 7.35 0 0 1 0-14.69 7.35 7.35 0 0 1 0 14.69zm0-12.69a5.35 5.35 0 0 0 0 10.69 5.35 5.35 0 0 0 0-10.69z" fill="currentColor"/></g></g></symbol><symbol id="nc-bgm-search-1x" viewBox="0 0 16 16"><title>bgm search 1x</title><g><g class="nc-icon-wrapper" fill="currentColor"><title>bgm-search-x</title><path class="cls-1" d="M12.7 11.25a6.85 6.85 0 0 0 1.4-4.2A7 7 0 0 0 7.1 0a7.1 7.1 0 0 0 0 14.2 6.64 6.64 0 0 0 4.2-1.4l3 3a1 1 0 0 0 1.4 0 1 1 0 0 0 0-1.4zm-5.6.8a5 5 0 0 1-5.1-5 5.1 5.1 0 0 1 10.2 0 5 5 0 0 1-5.1 5z" fill="currentColor"/></g></g></symbol><symbol id="nc-bgm-search-2x" viewBox="0 0 24 24"><title>bgm search 2x</title><g><g class="nc-icon-wrapper" fill="currentColor"><title>bgm-search-2x</title><path class="cls-1" d="M19.05 17a10.27 10.27 0 0 0 2.1-6.3A10.56 10.56 0 0 0 10.65 0a10.65 10.65 0 0 0 0 21.3A10 10 0 0 0 17 19.2l4.5 4.5a1.45 1.45 0 0 0 2.1 0 1.45 1.45 0 0 0 0-2.1zm-8.4 1.2A7.55 7.55 0 0 1 3 10.65a7.65 7.65 0 0 1 15.3 0 7.55 7.55 0 0 1-7.65 7.5z" fill="currentColor"/></g></g></symbol><symbol id="nc-bgm-search-3x" viewBox="0 0 32 32"><title>bgm search 3x</title><g><g class="nc-icon-wrapper" fill="currentColor"><title>bgm-search-3x</title><path class="cls-1" d="M25.24 22.46A13.62 13.62 0 0 0 28 14.11 14 14 0 0 0 14.11 0a14.11 14.11 0 0 0 0 28.22 13.2 13.2 0 0 0 8.35-2.78l6 6a2.16 2.16 0 0 0 1.39.6 2.12 2.12 0 0 0 1.39-.6 1.91 1.91 0 0 0 0-2.78zm-11.13 1.59A10 10 0 0 1 4 14.11a10.14 10.14 0 0 1 20.27 0 10 10 0 0 1-10.16 9.94z" fill="currentColor"/></g></g></symbol><symbol id="nc-bgm-search-4x" viewBox="0 0 48 48"><title>bgm search 4x</title><g><g class="nc-icon-wrapper" fill="currentColor"><title>bgm-search-4x</title><path class="cls-1" d="M37.86 33.69A20.38 20.38 0 0 0 42 21.17 21 21 0 0 0 21.17 0a21.17 21.17 0 0 0 0 42.34 19.82 19.82 0 0 0 12.52-4.18l8.94 9a2.9 2.9 0 0 0 4.18 0 2.89 2.89 0 0 0 0-4.18zm-16.69 2.38A15 15 0 0 1 6 21.17a15.21 15.21 0 1 1 30.41 0 15 15 0 0 1-15.24 14.9z" fill="currentColor"/></g></g></symbol><symbol id="nc-bgm-sefaz-1x" viewBox="0 0 16 16"><title>bgm sefaz 1x</title><g><g class="nc-icon-wrapper" fill="currentColor"><title>bgm-sefaz-1x</title><path class="cls-1" d="M13.89 5h-3a.9.9 0 0 1-.9-.9V.81h1V4h2.89z" fill="currentColor"/><path class="cls-1" d="M13 16.06H4A1 1 0 0 1 3 15V1.5A1.37 1.37 0 0 1 4.3.06h6.3a1.44 1.44 0 0 1 1.07.51l2.08 2.5a1.14 1.14 0 0 1 .25.72V15a1 1 0 0 1-1 1.06zm-8.7-15c-.14 0-.3.18-.3.44V15l9 .08V3.79l-2.1-2.58a.4.4 0 0 0-.3-.15z" fill="currentColor"/><path class="cls-1" d="M8.5 12c-.28 0-.5-.15-.5-.33V5.76c0-.18.22-.32.5-.32s.5.14.5.32v5.89c0 .18-.22.35-.5.35z" fill="currentColor"/><path class="cls-1" d="M10.84 7.9L8.73 5.8a.32.32 0 0 0-.46 0L6.16 7.9a.32.32 0 0 1-.46 0 .33.33 0 0 1 0-.47l2.57-2.58a.34.34 0 0 1 .46 0l2.58 2.58a.33.33 0 0 1 0 .47.32.32 0 0 1-.47 0z" fill="currentColor"/></g></g></symbol><symbol id="nc-bgm-sefaz-2x" viewBox="0 0 24 24"><title>bgm sefaz 2x</title><g><g class="nc-icon-wrapper" fill="currentColor"><title>bgm-sefaz-2x</title><path class="cls-1" d="M20.26 6.93H16a1.07 1.07 0 0 1-1-1.07V1.65h1v4.21l4.3.07z" fill="currentColor"/><path class="cls-1" d="M19.71 24H5.27A1.31 1.31 0 0 1 4 22.62V2.84A1.83 1.83 0 0 1 5.77 1h10.08a2 2 0 0 1 1.46.66l3.33 3.66a1.4 1.4 0 0 1 .36.88v16.42A1.32 1.32 0 0 1 19.71 24zM5.77 2a.83.83 0 0 0-.77.84v19.78a.32.32 0 0 0 .28.34h14.43a.32.32 0 0 0 .28-.34V6.2a.37.37 0 0 0-.09-.2l-3.33-3.71a1 1 0 0 0-.72-.29z" fill="currentColor"/><path class="cls-1" d="M12.5 17.72a.48.48 0 0 1-.5-.46V8.93a.48.48 0 0 1 .5-.46.48.48 0 0 1 .5.46v8.33a.48.48 0 0 1-.5.46z" fill="currentColor"/><path class="cls-1" d="M15.79 12.24l-3-3a.47.47 0 0 0-.66 0l-3 3a.45.45 0 0 1-.66 0 .47.47 0 0 1 0-.66l3.64-3.64a.47.47 0 0 1 .66 0l3.64 3.64a.47.47 0 0 1 0 .66.45.45 0 0 1-.62 0z" fill="currentColor"/></g></g></symbol><symbol id="nc-bgm-sefaz-3x" viewBox="0 0 32 32"><title>bgm sefaz 3x</title><g><g class="nc-icon-wrapper" fill="currentColor"><title>bgm-sefaz-3x</title><path class="cls-1" d="M27.9 9.05h-5.24a1.77 1.77 0 0 1-1.77-1.77V1.47h2v5.58h5z" fill="currentColor"/><path class="cls-1" d="M27 32H7.19a2.12 2.12 0 0 1-2.07-2.15v-27A2.83 2.83 0 0 1 7.88 0h13.85A3.06 3.06 0 0 1 24 1l4.58 5a2.18 2.18 0 0 1 .57 1.48v22.38A2.12 2.12 0 0 1 27 32zM7.88 2a.83.83 0 0 0-.76.89v27a.16.16 0 0 0 .07.15H27s.08-.05.08-.15V7.44a.25.25 0 0 0 0-.13l-4.58-5a1.07 1.07 0 0 0-.77-.31z" fill="currentColor"/><path class="cls-1" d="M17 25.06c-.55 0-1-.28-1-.64V13c0-.35.45-.64 1-.64s1 .29 1 .64v11.42c0 .36-.45.64-1 .64z" fill="currentColor"/><path class="cls-1" d="M22.7 18.14L17.57 13a.8.8 0 0 0-1.14 0l-5.13 5.14a.81.81 0 0 1-1.14 0 .81.81 0 0 1 0-1.14l6.29-6.29a.81.81 0 0 1 1.14 0L23.86 17a.81.81 0 0 1 0 1.14.81.81 0 0 1-1.16 0z" fill="currentColor"/></g></g></symbol><symbol id="nc-bgm-sefaz-4x" viewBox="0 0 48 48"><title>bgm sefaz 4x</title><g><g class="nc-icon-wrapper" fill="currentColor"><title>bgm-sefaz-4x</title><path class="cls-1" d="M42.18 12.07h-8A2.19 2.19 0 0 1 32 9.88v-8h2v8a.2.2 0 0 0 .19.19h8z" fill="currentColor"/><path class="cls-1" d="M40.24 48H7.76A2.77 2.77 0 0 1 5 45.24V3.88A3.88 3.88 0 0 1 8.88 0h22.67a4.51 4.51 0 0 1 3.18 1.33L42.21 9a2.73 2.73 0 0 1 .79 1.92v34.32A2.77 2.77 0 0 1 40.24 48zM8.88 2A1.88 1.88 0 0 0 7 3.88v41.36a.76.76 0 0 0 .76.76h32.48a.76.76 0 0 0 .76-.76V10.92a.75.75 0 0 0-.22-.53L33.3 2.73A2.48 2.48 0 0 0 31.55 2z" fill="currentColor"/><rect class="cls-1" x="23" y="14" width="2" height="20" rx="1" ry="1" fill="currentColor"/><path class="cls-1" d="M31 21.65l-6.3-6.27a1 1 0 0 0-1.4 0L17 21.65a1 1 0 0 1-1.39 0 1 1 0 0 1 0-1.39l7.68-7.69a1 1 0 0 1 1.4 0l7.68 7.69a1 1 0 0 1 0 1.39 1 1 0 0 1-1.37 0z" fill="currentColor"/></g></g></symbol><symbol id="nc-bgm-tag-desc-1x" viewBox="0 0 16 16"><title>bgm tag desc 1x</title><g><g class="nc-icon-wrapper" fill="currentColor"><title>bgm-tag-desc-1x</title><path class="cls-1" d="M9.46 16a1 1 0 0 1-.73-.29L.28 7.27A1 1 0 0 1 0 6.54V1a1 1 0 0 1 1-1h5.6a1 1 0 0 1 .72.3l8.46 8.46a1 1 0 0 1 0 1.45l-5.6 5.6a1 1 0 0 1-.72.19zM1 .92v5.62l8.86 8.83-.38-.37 5.59-5.6L6.62.93z" fill="currentColor"/><circle class="cls-1" cx="4.09" cy="4.04" r="1.07" fill="currentColor"/></g></g></symbol><symbol id="nc-bgm-tag-desc-2x" viewBox="0 0 24 24"><title>bgm tag desc 2x</title><g><g class="nc-icon-wrapper" fill="currentColor"><title>bgm-tag-desc-2x</title><path class="cls-1" d="M14.42 22.45l8-8a.75.75 0 0 0 0-1.07L10.32 1.22A.77.77 0 0 0 9.78 1h-8a.76.76 0 0 0-.78.76v8a.77.77 0 0 0 .22.54l12.13 12.15a.75.75 0 0 0 1.07 0z" fill="none" stroke="currentColor" stroke-linecap="square" stroke-miterlimit="10" stroke-width="2"/><circle class="cls-2" cx="6.52" cy="6.49" r="1.5" fill="currentColor"/></g></g></symbol><symbol id="nc-bgm-tag-desc-3x" viewBox="0 0 32 32"><title>bgm tag desc 3x</title><g><g class="nc-icon-wrapper" fill="currentColor"><title>bgm-tag-desc-3x</title><path class="cls-1" d="M19.59 30.77l11.08-11.09a1 1 0 0 0 0-1.47L13.92 1.46a1 1 0 0 0-.74-.31H2.1a1 1 0 0 0-1 1.05v11.08a1.07 1.07 0 0 0 .3.74l16.71 16.75a1 1 0 0 0 1.48 0z" fill="none" stroke="currentColor" stroke-linecap="square" stroke-miterlimit="10" stroke-width="2"/><circle class="cls-2" cx="6.57" cy="6.64" r="1.5" fill="currentColor"/></g></g></symbol><symbol id="nc-bgm-tag-desc-4x" viewBox="0 0 48 48"><title>bgm tag desc 4x</title><g><g class="nc-icon-wrapper" fill="currentColor"><title>bgm-tag-desc-4x</title><path class="cls-1" d="M29.5 46.47l17-16.95a1.61 1.61 0 0 0 0-2.26L20.84 1.65a1.61 1.61 0 0 0-1.13-.47h-17a1.6 1.6 0 0 0-1.6 1.6v17a1.61 1.61 0 0 0 .47 1.13l25.67 25.56a1.59 1.59 0 0 0 2.25 0z" fill="none" stroke="currentColor" stroke-linecap="square" stroke-miterlimit="10" stroke-width="2"/><circle class="cls-2" cx="7.54" cy="7.53" r="2.37" fill="currentColor"/></g></g></symbol></svg>